<svg xmlns="http://www.w3.org/2000/svg" viewBox="0 0 200 200">
  <defs>
    <linearGradient id="bg" x1="0" y1="0" x2="1" y2="1"><stop offset="0%" stop-color="#1565C0"/><stop offset="100%" stop-color="#1E88E5"/></linearGradient>
    <linearGradient id="skin" x1="0" y1="0" x2="0" y2="1"><stop offset="0%" stop-color="#8B6914"/><stop offset="100%" stop-color="#7A5C10"/></linearGradient>
  </defs>
  <circle cx="100" cy="100" r="100" fill="url(#bg)"/>
  <!-- Boubou bleu -->
  <path d="M50 150 Q70 132 100 136 Q130 132 150 150 L160 200 H40 Z" fill="#E3F2FD" stroke="#BBDEFB" stroke-width="1"/>
  <path d="M70 150 L72 200" stroke="#90CAF9" stroke-width="1" opacity="0.5"/>
  <path d="M90 142 L90 200" stroke="#90CAF9" stroke-width="1" opacity="0.5"/>
  <path d="M110 142 L110 200" stroke="#90CAF9" stroke-width="1" opacity="0.5"/>
  <path d="M130 150 L128 200" stroke="#90CAF9" stroke-width="1" opacity="0.5"/>
  <!-- Embroidered collar -->
  <path d="M75 148 Q100 138 125 148" fill="none" stroke="#FFD700" stroke-width="2.5"/>
  <path d="M80 152 Q100 142 120 152" fill="none" stroke="#FFD700" stroke-width="1.5"/>
  <!-- Neck -->
  <rect x="86" y="126" width="28" height="18" rx="5" fill="url(#skin)"/>
  <!-- Face -->
  <ellipse cx="100" cy="103" rx="37" ry="41" fill="url(#skin)"/>
  <!-- Short hair -->
  <ellipse cx="100" cy="76" rx="39" ry="26" fill="#1A1A1A"/>
  <!-- Short beard -->
  <path d="M78 118 Q82 130 100 134 Q118 130 122 118" fill="#1A1A1A" opacity="0.6"/>
  <!-- Eyebrows -->
  <path d="M78 92 Q85 88 92 91" stroke="#3E2B0A" stroke-width="2" fill="none"/>
  <path d="M108 91 Q115 88 122 92" stroke="#3E2B0A" stroke-width="2" fill="none"/>
  <!-- Eyes -->
  <ellipse cx="86" cy="98" rx="6" ry="5" fill="white"/>
  <circle cx="87" cy="98" r="3" fill="#2C1810"/>
  <circle cx="88" cy="97" r="1" fill="white"/>
  <ellipse cx="114" cy="98" rx="6" ry="5" fill="white"/>
  <circle cx="115" cy="98" r="3" fill="#2C1810"/>
  <circle cx="116" cy="97" r="1" fill="white"/>
  <!-- Nose -->
  <path d="M96 104 Q100 111 104 104" stroke="#6B4D10" stroke-width="1.5" fill="none"/>
  <!-- Big confident smile -->
  <path d="M86 114 Q100 126 114 114" stroke="#5C3D0A" stroke-width="2" fill="none"/>
  <path d="M90 116 Q100 122 110 116" fill="white" opacity="0.8"/>
</svg>
