<svg xmlns="http://www.w3.org/2000/svg" viewBox="0 0 200 200">
  <defs>
    <linearGradient id="bg" x1="0" y1="0" x2="1" y2="1"><stop offset="0%" stop-color="#6A1B9A"/><stop offset="100%" stop-color="#8E24AA"/></linearGradient>
    <linearGradient id="skin" x1="0" y1="0" x2="0" y2="1"><stop offset="0%" stop-color="#7B4B2A"/><stop offset="100%" stop-color="#6A4022"/></linearGradient>
  </defs>
  <circle cx="100" cy="100" r="100" fill="url(#bg)"/>
  <!-- Pagne attire -->
  <path d="M45 150 Q70 134 100 138 Q130 134 155 150 L165 200 H35 Z" fill="#CE93D8"/>
  <path d="M55 158 Q100 144 145 158" fill="none" stroke="#AB47BC" stroke-width="2"/>
  <!-- Beaded necklace -->
  <circle cx="76" cy="145" r="3" fill="#F44336"/>
  <circle cx="84" cy="142" r="3" fill="#FFD700"/>
  <circle cx="92" cy="140" r="3" fill="#4CAF50"/>
  <circle cx="100" cy="139" r="3" fill="#F44336"/>
  <circle cx="108" cy="140" r="3" fill="#FFD700"/>
  <circle cx="116" cy="142" r="3" fill="#4CAF50"/>
  <circle cx="124" cy="145" r="3" fill="#F44336"/>
  <!-- Neck -->
  <rect x="87" y="126" width="26" height="16" rx="5" fill="url(#skin)"/>
  <!-- Face -->
  <ellipse cx="100" cy="104" rx="36" ry="40" fill="url(#skin)"/>
  <!-- Elegant braided updo -->
  <ellipse cx="100" cy="76" rx="40" ry="28" fill="#1A1A1A"/>
  <ellipse cx="100" cy="60" rx="22" ry="14" fill="#1A1A1A"/>
  <path d="M78 62 Q80 50 90 48" stroke="#2C2C2C" stroke-width="2" fill="none"/>
  <path d="M110 48 Q120 50 122 62" stroke="#2C2C2C" stroke-width="2" fill="none"/>
  <!-- Hair beads -->
  <circle cx="88" cy="50" r="2.5" fill="#FFD700"/>
  <circle cx="112" cy="50" r="2.5" fill="#FFD700"/>
  <circle cx="100" cy="46" r="2.5" fill="#CE93D8"/>
  <!-- Eyebrows -->
  <path d="M80 94 Q86 91 92 93" stroke="#3E2B0A" stroke-width="1.5" fill="none"/>
  <path d="M108 93 Q114 91 120 94" stroke="#3E2B0A" stroke-width="1.5" fill="none"/>
  <!-- Eyes with lashes -->
  <ellipse cx="86" cy="100" rx="6" ry="5" fill="white"/>
  <circle cx="87" cy="100" r="3" fill="#2C1810"/>
  <circle cx="88" cy="99" r="1" fill="white"/>
  <path d="M80 97 L78 95" stroke="#1A1A1A" stroke-width="1"/>
  <path d="M92 97 L94 95" stroke="#1A1A1A" stroke-width="1"/>
  <ellipse cx="114" cy="100" rx="6" ry="5" fill="white"/>
  <circle cx="115" cy="100" r="3" fill="#2C1810"/>
  <circle cx="116" cy="99" r="1" fill="white"/>
  <path d="M108 97 L106 95" stroke="#1A1A1A" stroke-width="1"/>
  <path d="M120 97 L122 95" stroke="#1A1A1A" stroke-width="1"/>
  <!-- Nose -->
  <path d="M96 106 Q100 112 104 106" stroke="#5A3A18" stroke-width="1.5" fill="none"/>
  <!-- Graceful smile -->
  <path d="M89 116 Q100 124 111 116" stroke="#4A3018" stroke-width="2" fill="none"/>
  <ellipse cx="100" cy="118" rx="7" ry="2.5" fill="#A0522D" opacity="0.4"/>
  <!-- Earrings -->
  <path d="M63 104 L60 114 L66 114 Z" fill="#FFD700"/>
  <path d="M137 104 L134 114 L140 114 Z" fill="#FFD700"/>
</svg>
