<svg xmlns="http://www.w3.org/2000/svg" viewBox="0 0 200 200">
  <defs>
    <linearGradient id="bg" x1="0" y1="0" x2="1" y2="1"><stop offset="0%" stop-color="#37474F"/><stop offset="100%" stop-color="#546E7A"/></linearGradient>
    <linearGradient id="skin" x1="0" y1="0" x2="0" y2="1"><stop offset="0%" stop-color="#8B6914"/><stop offset="100%" stop-color="#7A5C10"/></linearGradient>
  </defs>
  <circle cx="100" cy="100" r="100" fill="url(#bg)"/>
  <!-- Modern urban jacket -->
  <path d="M48 148 Q70 130 100 134 Q130 130 152 148 L162 200 H38 Z" fill="#263238"/>
  <!-- Hoodie/jacket details -->
  <path d="M80 140 L80 200" stroke="#37474F" stroke-width="1"/>
  <path d="M120 140 L120 200" stroke="#37474F" stroke-width="1"/>
  <!-- T-shirt visible -->
  <path d="M78 142 Q100 150 122 142 L120 200 H80 Z" fill="#FF5722"/>
  <!-- Zip line -->
  <line x1="100" y1="148" x2="100" y2="200" stroke="#E64A19" stroke-width="1.5"/>
  <!-- Headphones around neck -->
  <ellipse cx="72" cy="140" rx="8" ry="12" fill="none" stroke="#90A4AE" stroke-width="3"/>
  <ellipse cx="128" cy="140" rx="8" ry="12" fill="none" stroke="#90A4AE" stroke-width="3"/>
  <path d="M72 128 Q72 120 80 120 L120 120 Q128 120 128 128" fill="none" stroke="#90A4AE" stroke-width="3"/>
  <rect x="66" y="136" width="12" height="8" rx="2" fill="#78909C"/>
  <rect x="122" y="136" width="12" height="8" rx="2" fill="#78909C"/>
  <!-- Neck -->
  <rect x="86" y="124" width="28" height="18" rx="5" fill="url(#skin)"/>
  <!-- Face -->
  <ellipse cx="100" cy="103" rx="37" ry="41" fill="url(#skin)"/>
  <!-- Modern fade haircut -->
  <path d="M62 90 Q62 58 100 52 Q138 58 138 90 L136 95 Q130 92 100 90 Q70 92 64 95 Z" fill="#1A1A1A"/>
  <path d="M65 90 Q65 65 100 58 Q135 65 135 90" fill="#2C2C2C"/>
  <!-- Flat top style -->
  <path d="M70 68 L130 68 Q135 65 135 62 Q100 55 65 62 Q65 65 70 68" fill="#1A1A1A"/>
  <!-- Cool eyebrows -->
  <path d="M78 92 Q85 88 92 91" stroke="#3E2B0A" stroke-width="2" fill="none"/>
  <path d="M108 91 Q115 88 122 92" stroke="#3E2B0A" stroke-width="2" fill="none"/>
  <!-- Confident eyes -->
  <ellipse cx="86" cy="98" rx="6" ry="5" fill="white"/>
  <circle cx="87" cy="98" r="3" fill="#2C1810"/>
  <circle cx="88" cy="97" r="1" fill="white"/>
  <ellipse cx="114" cy="98" rx="6" ry="5" fill="white"/>
  <circle cx="115" cy="98" r="3" fill="#2C1810"/>
  <circle cx="116" cy="97" r="1" fill="white"/>
  <!-- Small goatee -->
  <ellipse cx="100" cy="124" rx="5" ry="4" fill="#1A1A1A" opacity="0.6"/>
  <!-- Nose -->
  <path d="M96 104 Q100 111 104 104" stroke="#6B4D10" stroke-width="1.5" fill="none"/>
  <!-- Fun confident grin -->
  <path d="M86 114 Q100 126 114 114" stroke="#5C3D0A" stroke-width="2" fill="none"/>
  <path d="M90 116 Q100 122 110 116" fill="white" opacity="0.8"/>
  <!-- Small earring -->
  <circle cx="63" cy="100" r="2.5" fill="#90A4AE"/>
</svg>
