<svg xmlns="http://www.w3.org/2000/svg" viewBox="0 0 200 200">
  <defs>
    <linearGradient id="bg" x1="0" y1="0" x2="1" y2="1"><stop offset="0%" stop-color="#1565C0"/><stop offset="100%" stop-color="#1E88E5"/></linearGradient>
    <linearGradient id="skin" x1="0" y1="0" x2="0" y2="1"><stop offset="0%" stop-color="#A0752A"/><stop offset="100%" stop-color="#8B6520"/></linearGradient>
  </defs>
  <circle cx="100" cy="100" r="100" fill="url(#bg)"/>
  <!-- Boubou dress -->
  <path d="M45 152 Q70 135 100 140 Q130 135 155 152 L165 200 H35 Z" fill="#E3F2FD" stroke="#BBDEFB" stroke-width="1"/>
  <path d="M75 150 Q100 140 125 150" fill="none" stroke="#FFD700" stroke-width="3"/>
  <!-- Neck -->
  <rect x="87" y="128" width="26" height="16" rx="5" fill="url(#skin)"/>
  <!-- Gold necklace -->
  <ellipse cx="100" cy="140" rx="20" ry="5" fill="none" stroke="#FFD700" stroke-width="2"/>
  <!-- Face -->
  <ellipse cx="100" cy="104" rx="35" ry="39" fill="url(#skin)"/>
  <!-- Blue headwrap -->
  <path d="M58 90 Q60 60 100 55 Q140 60 142 90 L140 95 Q100 85 60 95 Z" fill="#42A5F5"/>
  <path d="M58 88 Q60 62 100 57 Q140 62 142 88" fill="#1E88E5"/>
  <path d="M130 70 Q140 55 150 65 Q145 80 135 78" fill="#42A5F5"/>
  <path d="M60 92 L58 88" stroke="#1565C0" stroke-width="1.5"/>
  <path d="M80 87 L78 83" stroke="#1565C0" stroke-width="1.5"/>
  <path d="M100 85 L100 80" stroke="#1565C0" stroke-width="1.5"/>
  <path d="M120 87 L122 83" stroke="#1565C0" stroke-width="1.5"/>
  <!-- Eyebrows -->
  <path d="M80 95 Q86 92 92 94" stroke="#3E2B0A" stroke-width="1.5" fill="none"/>
  <path d="M108 94 Q114 92 120 95" stroke="#3E2B0A" stroke-width="1.5" fill="none"/>
  <!-- Eyes with lashes -->
  <ellipse cx="86" cy="100" rx="6" ry="5" fill="white"/>
  <circle cx="87" cy="100" r="3" fill="#2C1810"/>
  <circle cx="88" cy="99" r="1" fill="white"/>
  <path d="M80 97 L78 95" stroke="#1A1A1A" stroke-width="1"/>
  <path d="M92 97 L94 95" stroke="#1A1A1A" stroke-width="1"/>
  <ellipse cx="114" cy="100" rx="6" ry="5" fill="white"/>
  <circle cx="115" cy="100" r="3" fill="#2C1810"/>
  <circle cx="116" cy="99" r="1" fill="white"/>
  <path d="M108 97 L106 95" stroke="#1A1A1A" stroke-width="1"/>
  <path d="M120 97 L122 95" stroke="#1A1A1A" stroke-width="1"/>
  <!-- Nose -->
  <path d="M96 106 Q100 112 104 106" stroke="#7A5A15" stroke-width="1.5" fill="none"/>
  <!-- Bright smile -->
  <path d="M88 115 Q100 124 112 115" stroke="#5C3D0A" stroke-width="2" fill="none"/>
  <path d="M91 117 Q100 122 109 117" fill="white" opacity="0.8"/>
  <!-- Gold earrings -->
  <circle cx="65" cy="104" r="4" fill="#FFD700"/>
  <circle cx="135" cy="104" r="4" fill="#FFD700"/>
</svg>
